P1
128
32
11111111111110101110100101100010011001101100100001011000101010100110010010011011110101000110110001011101101011111111111111111111
11111111111110101110100101100010011001101100100001011000101010100110010010011011110101000110110001011101101011111111111111111111
11111111111110101110100101100010011001101100100001011000101010100110010010011011110101000110110001011101101011111111111111111111
11111111111110101110100101100010011001101100100001011000101010100110010010011011110101000110110001011101101011111111111111111111
11111111111110101110100101100010011001101100100001011000101010100110010010011011110101000110110001011101101011111111111111111111
11111111111110101110100101100010011001101100100001011000101010100110010010011011110101000110110001011101101011111111111111111111
11111111111110101110100101100010011001101100100001011000101010100110010010011011110101000110110001011101101011111111111111111111
11111111111110101110100101100010011001101100100001011000101010100110010010011011110101000110110001011101101011111111111111111111
11111111111110101110100101100010011001101100100001011000101010100110010010011011110101000110110001011101101011111111111111111111
11111111111110101110100101100010011001101100100001011000101010100110010010011011110101000110110001011101101011111111111111111111
11111111111110101110100101100010011001101100100001011000101010100110010010011011110101000110110001011101101011111111111111111111
11111111111110101110100101100010011001101100100001011000101010100110010010011011110101000110110001011101101011111111111111111111
11111111111110101110100101100010011001101100100001011000101010100110010010011011110101000110110001011101101011111111111111111111
11111111111110101110100101100010011001101100100001011000101010100110010010011011110101000110110001011101101011111111111111111111
11111111111110101110100101100010011001101100100001011000101010100110010010011011110101000110110001011101101011111111111111111111
11111111111110101110100101100010011001101100100001011000101010100110010010011011110101000110110001011101101011111111111111111111
11111111111110101110100101100010011001101100100001011000101010100110010010011011110101000110110001011101101011111111111111111111
11111111111110101110100101100010011001101100100001011000101010100110010010011011110101000110110001011101101011111111111111111111
11111111111110101110100101100010011001101100100001011000101010100110010010011011110101000110110001011101101011111111111111111111
11111111111110101110100101100010011001101100100001011000101010100110010010011011110101000110110001011101101011111111111111111111
11111111111110101110100101100010011001101100100001011000101010100110010010011011110101000110110001011101101011111111111111111111
11111111111110101110100101100010011001101100100001011000101010100110010010011011110101000110110001011101101011111111111111111111
11111111111110101110100101100010011001101100100001011000101010100110010010011011110101000110110001011101101011111111111111111111
11111111111110101110100101100010011001101100100001011000101010100110010010011011110101000110110001011101101011111111111111111111
11111111111110101111111111111111111111111111111111111111111010111111111111111111111111111111111111111111101011111111111111111111
11111110000110101100011110001111001111000111100011110010011010111001111000111100011110010011000011100001101011111111111111111111
11111110011110101001001100100110001111110011111001110010011010110001111110011111001110010011001111111001101011111111111111111111
11111110001110101100001100100111001111110011100011110000011010111001111110011100011110000011000111110011101011111111111111111111
11111111100110101111001100100111001111100111111001111110011010111001111100111111001111110011110011110011101011111111111111111111
11111111100110101001001100100111001111001111111001111110011010111001111001111111001111110011110011110011101011111111111111111111
11111110001110101100011110001111001111000011100011111110011010111001111000011100011111110011000111110011101011111111111111111111
11111111111110101111111111111111111111111111111111111111111010111111111111111111111111111111111111111111101011111111111111111111