P1
128
32
11111111111111111111111111111101011001101101100100001010111001010101000110111101001001100110010101111111111111111111111111111111
11111111111111111111111111111101011001101101100100001010111001010101000110111101001001100110010101111111111111111111111111111111
11111111111111111111111111111101011001101101100100001010111001010101000110111101001001100110010101111111111111111111111111111111
11111111111111111111111111111101011001101101100100001010111001010101000110111101001001100110010101111111111111111111111111111111
11111111111111111111111111111101011001101101100100001010111001010101000110111101001001100110010101111111111111111111111111111111
11111111111111111111111111111101011001101101100100001010111001010101000110111101001001100110010101111111111111111111111111111111
11111111111111111111111111111101011001101101100100001010111001010101000110111101001001100110010101111111111111111111111111111111
11111111111111111111111111111101011001101101100100001010111001010101000110111101001001100110010101111111111111111111111111111111
11111111111111111111111111111101011001101101100100001010111001010101000110111101001001100110010101111111111111111111111111111111
11111111111111111111111111111101011001101101100100001010111001010101000110111101001001100110010101111111111111111111111111111111
11111111111111111111111111111101011001101101100100001010111001010101000110111101001001100110010101111111111111111111111111111111
11111111111111111111111111111101011001101101100100001010111001010101000110111101001001100110010101111111111111111111111111111111
11111111111111111111111111111101011001101101100100001010111001010101000110111101001001100110010101111111111111111111111111111111
11111111111111111111111111111101011001101101100100001010111001010101000110111101001001100110010101111111111111111111111111111111
11111111111111111111111111111101011001101101100100001010111001010101000110111101001001100110010101111111111111111111111111111111
11111111111111111111111111111101011001101101100100001010111001010101000110111101001001100110010101111111111111111111111111111111
11111111111111111111111111111101011001101101100100001010111001010101000110111101001001100110010101111111111111111111111111111111
11111111111111111111111111111101011001101101100100001010111001010101000110111101001001100110010101111111111111111111111111111111
11111111111111111111111111111101011001101101100100001010111001010101000110111101001001100110010101111111111111111111111111111111
11111111111111111111111111111101011001101101100100001010111001010101000110111101001001100110010101111111111111111111111111111111
11111111111111111111111111111101011001101101100100001010111001010101000110111101001001100110010101111111111111111111111111111111
11111111111111111111111111111101011001101101100100001010111001010101000110111101001001100110010101111111111111111111111111111111
11111111111111111111111111111101011001101101100100001010111001010101000110111101001001100110010101111111111111111111111111111111
11111111111111111111111111111101011001101101100100001010111001010101000110111101001001100110010101111111111111111111111111111111
11111111111111111111111111111101011111111111111111111111111111010111111111111111111111111111110101111111111111111111111111111111
11111111111111111111111111111101011001111000111100011110010011010110010011000111100011111001110101111111111111111111111111111111
11111111111111111111111111111101010001111110011111001110010011010110010011110011111001110001110101111111111111111111111111111111
11111111111111111111111111111101011001111110011100011110000011010110000011000111111001111001110101111111111111111111111111111111
11111111111111111111111111111101011001111100111111001111110011010111110011110011110011111001110101111111111111111111111111111111
11111111111111111111111111111101011001111001111111001111110011010111110011110011100111111001110101111111111111111111111111111111
11111111111111111111111111111101011001111000011100011111110011010111110011000111100001111001110101111111111111111111111111111111
11111111111111111111111111111101011111111111111111111111111111010111111111111111111111111111110101111111111111111111111111111111