P1
128
32
11111111111111110101110010110011011011001000010101110010011101010101011110111011011011100010110011001001001101011111111111111111
11111111111111110101110010110011011011001000010101110010011101010101011110111011011011100010110011001001001101011111111111111111
11111111111111110101110010110011011011001000010101110010011101010101011110111011011011100010110011001001001101011111111111111111
11111111111111110101110010110011011011001000010101110010011101010101011110111011011011100010110011001001001101011111111111111111
11111111111111110101110010110011011011001000010101110010011101010101011110111011011011100010110011001001001101011111111111111111
11111111111111110101110010110011011011001000010101110010011101010101011110111011011011100010110011001001001101011111111111111111
11111111111111110101110010110011011011001000010101110010011101010101011110111011011011100010110011001001001101011111111111111111
11111111111111110101110010110011011011001000010101110010011101010101011110111011011011100010110011001001001101011111111111111111
11111111111111110101110010110011011011001000010101110010011101010101011110111011011011100010110011001001001101011111111111111111
11111111111111110101110010110011011011001000010101110010011101010101011110111011011011100010110011001001001101011111111111111111
11111111111111110101110010110011011011001000010101110010011101010101011110111011011011100010110011001001001101011111111111111111
11111111111111110101110010110011011011001000010101110010011101010101011110111011011011100010110011001001001101011111111111111111
11111111111111110101110010110011011011001000010101110010011101010101011110111011011011100010110011001001001101011111111111111111
11111111111111110101110010110011011011001000010101110010011101010101011110111011011011100010110011001001001101011111111111111111
11111111111111110101110010110011011011001000010101110010011101010101011110111011011011100010110011001001001101011111111111111111
11111111111111110101110010110011011011001000010101110010011101010101011110111011011011100010110011001001001101011111111111111111
11111111111111110101110010110011011011001000010101110010011101010101011110111011011011100010110011001001001101011111111111111111
11111111111111110101110010110011011011001000010101110010011101010101011110111011011011100010110011001001001101011111111111111111
11111111111111110101110010110011011011001000010101110010011101010101011110111011011011100010110011001001001101011111111111111111
11111111111111110101110010110011011011001000010101110010011101010101011110111011011011100010110011001001001101011111111111111111
11111111111111110101110010110011011011001000010101110010011101010101011110111011011011100010110011001001001101011111111111111111
11111111111111110101110010110011011011001000010101110010011101010101011110111011011011100010110011001001001101011111111111111111
11111111111111110101110010110011011011001000010101110010011101010101011110111011011011100010110011001001001101011111111111111111
11111111111111110101110010110011011011001000010101110010011101010101011110111011011011100010110011001001001101011111111111111111
11111111111111110101110010111111111111111111111111111111111111010111111111111111111111111111111111111001001101011111111111111111
11111111111000110101110010110011110001111000111100100110000111010111000111000011110001111000111100111001001101010001111111111111
11111111110010010101110010100011111100111110011100100110011111010110011111110011100100110010011000111001001101011100111111111111
11111111110010010101110010110011111100111000111100000110001111010110000111100111110001111000011100111001001101011100111111111111
11111111110010010101110010110011111001111110011111100111100111010110010011100111100100111110011100111001001101011001111111111111
11111111110010010101110010110011110011111110011111100111100111010110010011100111100100110010011100111001001101010011111111111111
11111111111000110101110010110011110000111000111111100110001111010111000111100111110001111000111100111001001101010000111111111111
11111111111111110101110010111111111111111111111111111111111111010111111111111111111111111111111111111001001101011111111111111111